<svg width="50" height="48" viewBox="0 0 50 48" fill="none" xmlns="http://www.w3.org/2000/svg">
<g clip-path="url(#clip0_4116_21839)">
<path d="M49.7389 45.784C40.1521 36.0143 35.9661 31.7724 34.0506 29.8469C32.6428 28.4323 31.4437 27.2449 29.2476 25.0038C27.0214 22.7342 26.7709 22.4411 26.295 22.0119C24.5965 20.4821 21.7366 18.7553 16.6923 18.1591C16.6607 18.1555 16.6289 18.1536 16.5971 18.1533L6.91087 18.0881C6.74361 18.0872 6.57982 18.1358 6.44011 18.2278C6.3004 18.3197 6.19103 18.451 6.12577 18.605C6.06051 18.759 6.04227 18.9289 6.07336 19.0932C6.10445 19.2576 6.18347 19.409 6.30047 19.5286L7.31001 20.5598C7.33218 20.6003 7.36033 20.6371 7.39351 20.6692L8.47903 21.7547C11.6721 25.0313 14.2757 27.7384 16.2155 29.7709C20.5317 34.2858 25.0842 38.5703 29.4087 43.0802C29.5824 43.2606 29.8722 43.5637 30.3147 43.9461C32.1008 45.4892 34.0723 46.3293 35.8476 46.7919L21.6974 32.64C21.6094 32.6578 21.5199 32.6667 21.4302 32.6667C21.1553 32.6669 20.8866 32.5855 20.658 32.433C20.4294 32.2804 20.2511 32.0634 20.1459 31.8096C20.0406 31.5557 20.0129 31.2763 20.0664 31.0067C20.12 30.7371 20.2522 30.4894 20.4465 30.295C20.6408 30.1006 20.8884 29.9682 21.1579 29.9145C21.4275 29.8609 21.7069 29.8883 21.9609 29.9935C22.2148 30.0986 22.4318 30.2767 22.5846 30.5052C22.7373 30.7337 22.8188 31.0024 22.8188 31.2772C22.8195 31.4486 22.788 31.6185 22.7261 31.7783L38.1672 47.2161L38.3935 47.2486H41.1165L28.6748 34.8069C28.3981 34.9131 28.0947 34.928 27.809 34.8494C27.5232 34.7709 27.2701 34.603 27.0866 34.3703C26.9032 34.1376 26.7989 33.8523 26.7892 33.5561C26.7795 33.2599 26.8647 32.9684 27.0326 32.7241C27.2004 32.4799 27.4419 32.2957 27.7219 32.1986C28.0019 32.1014 28.3056 32.0964 28.5886 32.1842C28.8716 32.272 29.1191 32.4481 29.2949 32.6866C29.4708 32.9252 29.5656 33.2137 29.5657 33.5101C29.5658 33.5998 29.5569 33.6893 29.539 33.7773L43.0103 47.2486H46.3245L29.4096 30.3337L29.3937 30.347L29.1591 30.0832L23.3139 24.2381L23.3198 24.2322C21.5721 22.8202 19.1155 22.0545 16.0076 21.9518C15.842 22.2135 15.5937 22.4125 15.3021 22.5169C15.0105 22.6213 14.6924 22.6253 14.3983 22.5281C14.1042 22.431 13.8511 22.2383 13.6791 21.9807C13.5071 21.7232 13.4261 21.4155 13.4491 21.1066C13.4721 20.7977 13.5976 20.5054 13.8058 20.2761C14.014 20.0468 14.2929 19.8937 14.5981 19.8411C14.9034 19.7885 15.2174 19.8395 15.4903 19.9859C15.7633 20.1323 15.9794 20.3658 16.1044 20.6491C19.5823 20.7827 22.0681 21.5418 24.25 23.302L24.2609 23.2911L24.3803 23.4097C24.6842 23.6602 24.9832 23.9333 25.2779 24.2264C26.8853 25.7294 28.4109 27.2859 29.8212 28.8515L48.2183 47.2486H49.1243C49.2939 47.2484 49.4596 47.1981 49.6008 47.1042C49.7419 47.0102 49.8522 46.8767 49.9178 46.7203C49.9834 46.564 50.0014 46.3917 49.9696 46.2252C49.9378 46.0586 49.8575 45.9052 49.7389 45.784Z" fill="white"/>
<path d="M48.8577 10.0627C49.1011 10.8484 49.259 11.658 49.3286 12.4776C49.0594 11.8319 48.6564 11.2505 48.1462 10.7717C47.7504 10.4051 47.4841 10.2915 47.3354 10.2389C46.9429 10.1104 46.5221 10.0951 46.1213 10.1947C45.6406 10.2989 45.1976 10.5328 44.8404 10.871C44.8404 10.8986 44.8404 10.9303 44.8404 10.9646C45.0233 11.7946 44.9345 12.6615 44.5869 13.4372C44.2394 14.2129 43.6516 14.8563 42.9104 15.2723C42.1692 15.6884 41.3139 15.855 40.4707 15.7477C39.6275 15.6404 38.8412 15.2647 38.2279 14.6762C37.8984 14.6057 37.5628 14.5679 37.2259 14.5635C37.2259 14.5635 37.0305 14.5635 36.8384 14.5743C36.4101 14.6027 35.54 14.799 34.4169 15.4185C33.8432 15.7367 33.0299 16.1959 32.235 17.0886C31.9701 17.3866 31.7304 17.7061 31.5185 18.0438C31.4776 19.1987 31.0275 20.2541 30.3027 21.0015L30.5532 21.252L39.8512 30.6451C39.9178 30.7128 40.0034 30.7588 40.0967 30.777C40.19 30.7952 40.2866 30.7847 40.3739 30.747C49.3069 26.7372 51.7218 17.4126 48.8577 10.0627ZM44.6592 25.6918C44.0054 27.138 42.8522 28.0206 42.0848 27.6733C41.3174 27.3259 41.2331 25.8755 41.8894 24.4334C42.5458 22.9913 43.6964 22.1045 44.4605 22.4519C45.2245 22.7993 45.3147 24.2497 44.6592 25.6918ZM49.1566 17.8626C49.0672 19.9185 48.1972 21.5501 47.2118 21.5075C46.5614 21.4791 46.0236 20.7259 45.7589 19.6254C45.2145 19.5608 44.6633 19.5822 44.1256 19.6888C43.3059 19.8525 42.5384 20.2133 41.8894 20.7401C41.5915 20.9862 41.3236 21.2664 41.0912 21.5751C41.0544 22.8427 40.1459 24.1236 38.7022 24.7482C36.8251 25.5598 34.7576 24.9561 34.0829 23.398C33.4082 21.8398 34.3843 19.9193 36.2606 19.1068C37.8705 18.4104 39.619 18.7561 40.51 19.8508C41.1446 19.8839 41.7806 19.826 42.3988 19.6788C43.6022 19.3889 44.7037 18.776 45.5844 17.9061C45.5844 17.8401 45.5844 17.7741 45.5902 17.7073C45.6796 15.6515 46.5505 14.0199 47.535 14.0625C48.5195 14.1051 49.2459 15.8077 49.1566 17.8626Z" fill="white"/>
<path d="M30.7741 15.4287C30.9937 15.4896 31.2194 15.5257 31.4471 15.5364C32.2988 15.5656 33.983 14.9627 33.983 14.9627C33.983 14.9627 35.8668 14.288 36.5265 13.6601C36.6787 13.5125 36.8148 13.349 36.9323 13.1725C37.0102 13.0506 37.0778 12.9223 37.1344 12.7892C36.904 11.8781 37.0051 10.9147 37.4194 10.0712C37.8338 9.2277 38.5345 8.55892 39.3964 8.18432C40.2583 7.80971 41.2253 7.75367 42.1247 8.02619C43.0241 8.29872 43.7973 8.88207 44.3063 9.67207C44.6043 9.79382 44.9239 9.85349 45.2457 9.84742C45.4795 9.84241 45.9096 9.83239 46.3237 9.54181C46.5384 9.38998 46.7143 9.18974 46.8373 8.9573C47.0228 7.95175 46.9164 6.91412 46.5308 5.9671C44.0742 2.83244 40.3626 0.552846 35.5478 0.0393107C35.2893 0.012058 35.0295 -0.00104352 34.7696 6.48421e-05C23.336 0.0217753 11.9032 0.0471042 0.471276 0.0760514C0.407927 0.0760075 0.345219 0.0887449 0.286907 0.113501C0.228595 0.138258 0.175877 0.174524 0.131908 0.22013C0.0879393 0.265736 0.0536234 0.319744 0.0310144 0.378922C0.0084053 0.4381 -0.00203219 0.501231 0.000326592 0.564537C0.0571078 2.03333 0.472946 5.59468 3.29948 8.70011C5.16491 10.7324 7.63619 12.1088 10.3462 12.6247C10.823 12.7157 11.1812 12.7199 11.7657 12.7541C13.546 12.8577 13.9518 12.6706 15.626 12.6781C17.0322 12.6882 18.0476 12.704 19.3001 13.1249C19.837 13.3061 20.2771 13.529 21.1371 13.9682C22.3729 14.6003 23.3541 15.1832 24.0188 15.5974C24.424 14.9302 25.0262 14.4051 25.7422 14.0943C27.3505 13.3988 29.1959 13.9215 30.3423 15.2558C30.481 15.3258 30.6254 15.3836 30.7741 15.4287ZM30.5302 0.775796C30.8392 6.48216e-05 32.2838 -0.166939 33.7567 0.417574C35.2297 1.00209 36.1733 2.10765 35.8643 2.88756C35.5554 3.66746 34.1108 3.82778 32.6378 3.24494C31.1648 2.6621 30.2213 1.55654 30.5302 0.775796ZM28.2431 9.9017C27.5693 8.34439 28.5437 6.42302 30.4208 5.61055C31.8646 4.98595 33.4202 5.20055 34.3688 6.04142C35.3293 6.13078 36.2956 5.94972 37.1586 5.51869C37.8812 5.15546 38.5073 4.62605 38.9856 3.97391C38.3644 3.02784 38.1832 2.12017 38.6082 1.62584C39.2511 0.879338 41.0364 1.36114 42.5962 2.70385C44.156 4.04656 44.9 5.73997 44.2562 6.48648C43.6124 7.23299 41.8272 6.75118 40.2682 5.40931C40.2173 5.36589 40.168 5.32163 40.1187 5.27737C38.8818 5.3243 37.6811 5.70769 36.6459 6.38628C36.1153 6.73607 35.6373 7.1598 35.2264 7.64465C35.4142 9.04414 34.4698 10.5555 32.8599 11.2519C30.9853 12.0644 28.917 11.4598 28.2431 9.9017Z" fill="white"/>
</g>
<defs>
<clipPath id="clip0_4116_21839">
<rect width="50" height="47.2486" fill="white"/>
</clipPath>
</defs>
</svg>
