<svg width="68" height="26" viewBox="0 0 68 26" fill="none" xmlns="http://www.w3.org/2000/svg">
<g clip-path="url(#clip0_4116_21672)">
<path d="M0 19.6418H2.11279V25.124H2.53958V19.6418H4.65237V19.2565H0V19.6418Z" fill="white"/>
<path d="M6.13662 22.3329H9.26305V21.9553H6.13662V19.6418H9.63141V19.2565H5.70898V25.124H9.75758V24.7387H6.13662V22.3329Z" fill="white"/>
<path d="M11.9063 20.3464C12.1461 20.1099 12.4312 19.9244 12.7446 19.801C13.0769 19.6709 13.4311 19.6057 13.7879 19.6088C14.1176 19.6067 14.4451 19.662 14.7558 19.7722C15.0692 19.8868 15.3538 20.0683 15.5899 20.304L15.8583 20.028C15.6015 19.7544 15.2843 19.5447 14.9319 19.4157C14.5601 19.2798 14.1668 19.2118 13.771 19.215C13.3582 19.2107 12.9485 19.286 12.5643 19.4369C12.2054 19.5801 11.8781 19.7921 11.6006 20.061C11.3234 20.3268 11.1038 20.6467 10.9553 21.0009C10.6529 21.7624 10.6529 22.6106 10.9553 23.372C11.1015 23.7263 11.3182 24.0473 11.5921 24.3154C11.8694 24.5865 12.1986 24.7987 12.56 24.9395C13.3225 25.2306 14.1645 25.2366 14.9311 24.9564C15.2831 24.8252 15.6002 24.6145 15.8575 24.3408L15.5891 24.0639C15.3551 24.3043 15.07 24.4889 14.7549 24.6041C14.4442 24.7144 14.1167 24.7697 13.787 24.7676C13.4302 24.7711 13.076 24.7058 12.7438 24.5753C12.432 24.4526 12.1481 24.2684 11.909 24.0335C11.67 23.7987 11.4807 23.5182 11.3525 23.2086C11.0894 22.5523 11.0894 21.8198 11.3525 21.1635C11.4807 20.8569 11.669 20.5791 11.9063 20.3464Z" fill="white"/>
<path d="M21.643 21.9553H17.7206V19.2565H17.293V25.124H17.7206V22.3329H21.643V25.124H22.0707V19.2565H21.643V21.9553Z" fill="white"/>
<path d="M28.4661 24.35L24.476 19.2565H24.1152V25.124H24.5429V20.0305L28.5415 25.124H28.8929V19.2565H28.4661V24.35Z" fill="white"/>
<path d="M35.6071 20.0609C35.3293 19.7904 35.0002 19.5782 34.6392 19.4368C33.8587 19.141 32.997 19.141 32.2165 19.4368C31.8543 19.5808 31.5246 19.7959 31.2469 20.0694C30.9713 20.3386 30.7532 20.661 30.6059 21.017C30.3033 21.7728 30.3033 22.6161 30.6059 23.372C30.7537 23.7264 30.9718 24.0473 31.2469 24.3153C31.5255 24.5879 31.8561 24.8015 32.219 24.9436C32.9993 25.2406 33.8615 25.2406 34.6418 24.9436C35.0013 24.8035 35.329 24.5926 35.6054 24.3233C35.8818 24.054 36.1012 23.732 36.2507 23.3762C36.5587 22.6159 36.5587 21.7655 36.2507 21.0051C36.1011 20.6508 35.8823 20.3298 35.6071 20.0609ZM35.8459 23.2128C35.7187 23.5199 35.5322 23.799 35.2972 24.0342C35.0604 24.2703 34.778 24.4558 34.4673 24.5795C33.7981 24.8358 33.0577 24.8358 32.3884 24.5795C32.0777 24.4558 31.7948 24.2712 31.5566 24.0365C31.3184 23.8017 31.1296 23.5216 31.0013 23.2128C30.7382 22.555 30.7382 21.8212 31.0013 21.1635C31.1305 20.8557 31.3197 20.5767 31.5579 20.3428C31.796 20.1088 32.0783 19.9247 32.3884 19.801C33.0577 19.5446 33.7981 19.5446 34.4673 19.801C34.778 19.9247 35.0604 20.1102 35.2972 20.3463C35.5314 20.5805 35.7178 20.8581 35.8459 21.1635C36.109 21.8212 36.109 22.555 35.8459 23.2128Z" fill="white"/>
<path d="M38.3905 19.2565H37.9629V25.124H41.7685V24.7387H38.3905V19.2565Z" fill="white"/>
<path d="M47.4208 20.0609C47.143 19.7904 46.8139 19.5782 46.4529 19.4368C45.6724 19.141 44.8107 19.141 44.0302 19.4368C43.6659 19.5801 43.3341 19.7952 43.0547 20.0694C42.7791 20.3386 42.561 20.661 42.4136 21.017C42.1121 21.773 42.1121 22.6159 42.4136 23.372C42.561 23.7279 42.7791 24.0503 43.0547 24.3195C43.3333 24.5921 43.6639 24.8058 44.0268 24.9479C44.8071 25.2448 45.6692 25.2448 46.4495 24.9479C46.809 24.8078 47.1367 24.5968 47.4131 24.3275C47.6895 24.0583 47.909 23.7362 48.0585 23.3804C48.3653 22.6199 48.3653 21.7699 48.0585 21.0094C47.911 20.654 47.6942 20.3316 47.4208 20.0609ZM47.6605 23.2128C47.5326 23.5198 47.3459 23.7988 47.1109 24.0342C46.874 24.2703 46.5917 24.4558 46.281 24.5795C45.6117 24.8358 44.8713 24.8358 44.2021 24.5795C43.8913 24.4558 43.6085 24.2712 43.3703 24.0365C43.1321 23.8017 42.9433 23.5216 42.815 23.2128C42.5519 22.555 42.5519 21.8212 42.815 21.1635C42.9443 20.8556 43.1336 20.5766 43.3719 20.3426C43.6102 20.1087 43.8927 19.9246 44.2029 19.801C44.8722 19.5446 45.6126 19.5446 46.2818 19.801C46.5926 19.9247 46.8749 20.1102 47.1117 20.3463C47.3459 20.5807 47.5325 20.8582 47.6613 21.1635C47.9233 21.8215 47.9233 22.5548 47.6613 23.2128H47.6605Z" fill="white"/>
<path d="M50.394 20.3463C50.637 20.1098 50.925 19.9244 51.2408 19.801C51.5774 19.6706 51.9358 19.6054 52.2968 19.6087C52.6345 19.6055 52.9703 19.6594 53.2901 19.7679C53.6089 19.881 53.8983 20.0642 54.1369 20.304L54.4053 20.0194C54.1452 19.7495 53.8265 19.5429 53.4738 19.4157C53.0938 19.2787 52.6923 19.2108 52.2883 19.215C51.8686 19.2098 51.4518 19.2851 51.0604 19.4368C50.6976 19.5796 50.3659 19.7915 50.0841 20.0609C49.8063 20.3263 49.5866 20.6463 49.4388 21.0009C49.1376 21.7625 49.1376 22.6103 49.4388 23.372C49.5856 23.727 49.8038 24.0481 50.0798 24.3153C50.3604 24.5864 50.6924 24.7985 51.0562 24.9394C51.4465 25.0907 51.8621 25.1663 52.2807 25.1621C52.6725 25.166 53.0623 25.1048 53.434 24.9809C53.7857 24.8634 54.1074 24.6703 54.3765 24.4152V22.2152H53.9658V24.2315C53.7624 24.398 53.531 24.527 53.2825 24.6125C52.9653 24.7201 52.6325 24.7739 52.2976 24.7717C51.9366 24.7755 51.5782 24.7103 51.2416 24.5795C50.9258 24.4561 50.6379 24.2706 50.3948 24.0342C50.1556 23.8007 49.9661 23.5213 49.8376 23.2128C49.5745 22.5565 49.5745 21.824 49.8376 21.1677C49.9658 20.8592 50.1551 20.5798 50.394 20.3463Z" fill="white"/>
<path d="M56.6796 19.2565H56.252V25.124H56.6796V19.2565Z" fill="white"/>
<path d="M59.1534 22.3329H62.2806V21.9553H59.1534V19.6418H62.649V19.2565H58.7266V25.124H62.7752V24.7387H59.1534V22.3329Z" fill="white"/>
<path d="M67.7882 22.8774C67.6519 22.6855 67.4705 22.5302 67.2598 22.4252C67.0325 22.31 66.7938 22.2186 66.5477 22.1525C66.2936 22.0831 66.0311 22.017 65.7678 21.9552C65.5218 21.8995 65.2808 21.8239 65.0471 21.7291C64.8465 21.6521 64.6669 21.5288 64.5229 21.3692C64.3854 21.199 64.3154 20.984 64.3265 20.7655C64.3236 20.5546 64.3851 20.3478 64.5026 20.1727C64.639 19.9815 64.8282 19.8344 65.0471 19.7493C65.3437 19.6341 65.6606 19.5799 65.9786 19.5901C66.2554 19.5922 66.5305 19.6332 66.7958 19.712C67.0781 19.7927 67.3455 19.9185 67.5876 20.0846L67.7468 19.7408C67.5007 19.568 67.2273 19.4378 66.9381 19.3555C66.6269 19.2614 66.3037 19.2135 65.9786 19.2133C65.4976 19.2133 65.1024 19.2858 64.7931 19.4309C64.5167 19.551 64.2813 19.749 64.1156 20.0008C63.9715 20.2321 63.896 20.4997 63.898 20.7722C63.886 21.0366 63.9548 21.2983 64.0953 21.5225C64.2283 21.7165 64.4084 21.8735 64.6186 21.9789C64.8488 22.0952 65.0906 22.1866 65.3401 22.2516C65.6026 22.321 65.8618 22.3871 66.1192 22.4481C66.3621 22.5051 66.6002 22.581 66.8314 22.675C67.033 22.7525 67.2138 22.8757 67.3598 23.0349C67.5004 23.2037 67.5723 23.4193 67.5613 23.6387C67.5637 23.8461 67.5009 24.049 67.3818 24.2187C67.2414 24.4075 67.0493 24.5517 66.8288 24.6337C66.5217 24.7469 66.1956 24.7996 65.8685 24.7887C65.4881 24.7907 65.1109 24.7182 64.7584 24.5753C64.4507 24.4585 64.1705 24.2795 63.9353 24.0494L63.7422 24.3678C63.993 24.6276 64.3017 24.8244 64.6432 24.9419C65.0381 25.0914 65.4572 25.1669 65.8795 25.1646C66.3656 25.1646 66.7639 25.0932 67.0744 24.9504C67.3556 24.8322 67.5959 24.6341 67.7654 24.3805C67.9138 24.1522 67.9926 23.8856 67.9923 23.6133C68.0024 23.3527 67.9311 23.0955 67.7882 22.8774Z" fill="white"/>
<path d="M10.3254 10.6783C10.4338 10.6342 10.5396 10.5877 10.6421 10.5377C11.507 10.1177 12.1621 9.52323 12.6075 8.75433C13.053 7.98543 13.2751 7.07878 13.274 6.03438C13.274 4.99167 13.0538 4.07599 12.6135 3.28733C12.1647 2.49028 11.4859 1.84719 10.6658 1.44213C9.80715 1.00179 8.75005 0.781616 7.49451 0.781616H1.35938V17.1903H4.2995V11.166H7.36156L10.5845 17.1903H13.8769L10.3254 10.6783ZM4.2995 3.24837H7.04147C7.79005 3.24837 8.40116 3.35846 8.87481 3.57863C9.31989 3.77301 9.68922 4.10755 9.92655 4.53129C10.1524 4.94623 10.2653 5.44726 10.2653 6.03438C10.2653 6.60682 10.1524 7.09487 9.92655 7.49851C9.68838 7.91157 9.32086 8.23475 8.88074 8.41815C8.41104 8.62703 7.80529 8.73175 7.06349 8.73231H4.2995V3.24837Z" fill="white"/>
<path d="M26.3001 14.1417L23.6682 13.6014C23.5526 13.9334 23.3602 14.2334 23.1068 14.477C22.8531 14.7179 22.5508 14.9018 22.2202 15.0164C21.8547 15.1405 21.4706 15.2013 21.0846 15.196C20.5041 15.2088 19.9304 15.0683 19.4215 14.7886C18.9358 14.5078 18.5478 14.0849 18.3096 13.5769C18.0714 13.0959 17.9407 12.5161 17.9175 11.8375H26.4873V10.9348C26.4873 9.85541 26.3388 8.92392 26.0418 8.14034C25.7796 7.41371 25.359 6.75451 24.8106 6.21046C24.2963 5.71098 23.6806 5.32802 23.0052 5.08759C22.3173 4.84389 21.5925 4.72098 20.8628 4.72431C19.6879 4.72431 18.6658 4.99388 17.7965 5.53301C16.9255 6.07373 16.2265 6.85119 15.781 7.77452C15.3085 8.72915 15.0723 9.8413 15.0723 11.1109C15.0723 12.3953 15.3125 13.5111 15.7929 14.4584C16.2488 15.3783 16.9649 16.1439 17.8523 16.6601C18.7415 17.1829 19.8065 17.4442 21.0474 17.4442C21.9653 17.4442 22.7822 17.3065 23.498 17.031C24.1724 16.7824 24.7835 16.3877 25.2873 15.8751C25.7597 15.3874 26.1072 14.7927 26.3001 14.1417ZM19.264 7.41632C19.7043 7.11937 20.2406 6.97061 20.8729 6.97005C21.5052 6.96948 22.0319 7.11626 22.4531 7.41039C22.8843 7.71652 23.2152 8.14348 23.404 8.63742C23.562 9.03751 23.6605 9.45863 23.6962 9.88731H17.926C17.9588 9.44341 18.0707 9.00895 18.2563 8.60439C18.4761 8.12298 18.8249 7.71179 19.264 7.41632Z" fill="white"/>
<path d="M35.1988 17.1903L39.8003 4.87854H36.7628L34.5273 11.5734C34.2698 12.3593 34.0477 13.1496 33.8608 13.9445C33.7872 14.2578 33.7101 14.5754 33.633 14.8929C33.556 14.5754 33.4798 14.2578 33.4044 13.9445C33.213 13.1507 32.9852 12.3604 32.721 11.5734L30.4753 4.87854H27.4141L31.9945 17.1903H35.1988Z" fill="white"/>
<path d="M43.1716 3.13827C43.6125 3.1474 44.0389 2.9811 44.3572 2.67591C44.513 2.5358 44.6373 2.3641 44.7217 2.17225C44.8061 1.9804 44.8487 1.77279 44.8466 1.56321C44.8486 1.35446 44.8058 1.14771 44.7211 0.956921C44.6364 0.766132 44.5117 0.595747 44.3555 0.457272C44.0337 0.164091 43.6141 0.00158691 43.1788 0.00158691C42.7435 0.00158691 42.3239 0.164091 42.0022 0.457272C41.8452 0.597435 41.7202 0.76971 41.6356 0.962421C41.551 1.15513 41.5088 1.36378 41.5119 1.57421C41.5108 1.782 41.5539 1.98764 41.6384 2.17746C41.723 2.36727 41.847 2.5369 42.0022 2.67507C42.3155 2.97794 42.7359 3.14448 43.1716 3.13827Z" fill="white"/>
<path d="M44.6033 4.87854H41.7402V17.1895H44.6033V4.87854Z" fill="white"/>
<path d="M49.4906 12.7462H58.6463L60.6685 17.1903H61.9091L54.6468 1.4032H53.4969L46.2363 17.1903H47.4769L49.4906 12.7462ZM54.0634 2.66918L58.2077 11.7749H49.931L54.0634 2.66918Z" fill="white"/>
<path d="M65.9214 1.4032H64.7715V17.1894H65.9214V1.4032Z" fill="white"/>
</g>
<defs>
<clipPath id="clip0_4116_21672">
<rect width="67.9887" height="25.1663" fill="white"/>
</clipPath>
</defs>
</svg>
